<svg xmlns="http://www.w3.org/2000/svg" xmlns:xlink="http://www.w3.org/1999/xlink" version="1.1" width="478" height="474" viewBox="0 0 478 474">
  <svg xml:space="preserve" width="478" height="474" data-version="2" data-id="lg_kqfCxQYFB5vbxAWmYU" viewBox="0 0 98 74" x="0" y="0">
    <rect width="100%" height="100%" fill="transparent"/><path fill="#1f09ff" d="M49.828 64.585q-1.22 0-2.41-.31-1.19-.3-2.11-.75-.93-.45-1.4-.91l1.54-2.76q.32.26 1 .68.68.42 1.58.74t1.8.32q1.48 0 2.48-.69 1-.7 1-2.03 0-1.11-.58-1.83-.58-.73-1.52-1.28-.95-.55-2.03-1.06-1.09-.5-2.08-1.14-1.13-.76-1.97-2-.84-1.25-.84-3.22 0-1.94.89-3.19.88-1.25 2.34-1.87 1.47-.63 3.21-.63 1.39 0 2.38.29.98.29 1.65.7.67.41 1.04.73l-1.53 2.63q-.5-.52-1.48-.97-.99-.45-2.21-.45-1.42 0-2.26.66-.84.65-.84 1.92 0 1.14.75 1.93.76.8 1.93 1.45 1.18.66 2.42 1.32 1.25.67 2.21 1.57.78.69 1.33 1.74.55 1.04.55 2.35 0 1.97-.91 3.33-.91 1.37-2.45 2.05-1.54.68-3.48.68"/><rect width="12.76" height="21.93" x="-6.38" y="-10.96" fill="none" rx="0" ry="0" transform="translate(50.79 54.12)"/><path fill="#1f09ff" d="M69.138 64.295h-10.29v-21.32h9.34v2.85h-6.12v5.88h4.93v2.9h-4.93v6.82h7.07z"/><rect width="10.29" height="21.32" x="-5.14" y="-10.66" fill="none" rx="0" ry="0" transform="translate(64.5 54.13)"/><path stroke="#1f09ff" stroke-width="5" d="m45.932 3.339.514 29.436m-12.382 8.886-30.308.53m34.477-8.22L16.707 13.185M53.155 36 73.94 14.476M16.47 70.935l21.332-22.09" vector-effect="non-scaling-stroke"/></svg></svg>
