<svg xmlns="http://www.w3.org/2000/svg" version="1.1" width="1200" height="1000">
  <path d="M0 0 C264 0 528 0 800 0 C800 198 800 396 800 600 C536 600 272 600 0 600 C0 402 0 204 0 0 Z " fill="#FEFEFE" transform="translate(0,0)"/>
  <path d="M0 0 C1.85407471 0.00519653 1.85407471 0.00519653 3.74560547 0.01049805 C12.98115852 0.12011346 21.44097031 0.96375018 30.375 3.3125 C31.67050781 3.60253906 31.67050781 3.60253906 32.9921875 3.8984375 C45.29893992 7.00538811 56.9747664 14.27760707 67.375 21.3125 C68.365 21.9725 69.355 22.6325 70.375 23.3125 C70.375 23.9725 70.375 24.6325 70.375 25.3125 C68.50150627 25.31796844 68.50150627 25.31796844 66.59016418 25.32354736 C54.77699538 25.36060723 42.96408461 25.41849964 31.15111256 25.49640274 C25.07900274 25.53578744 19.00703601 25.56802011 12.93481445 25.58349609 C7.06667608 25.59872194 1.19893128 25.63327262 -4.66903114 25.68080902 C-6.89949419 25.6955618 -9.13001345 25.70353748 -11.36052513 25.70438385 C-28.76284052 25.71761935 -42.72031183 26.67579883 -56.3125 38.6875 C-66.14632863 49.85022439 -71.02085373 61.21917743 -70.8359375 76.234375 C-70.08231638 87.23166094 -64.50831837 99.60834796 -56.625 107.3125 C-45.79100338 116.35440696 -34.42905064 120.07761001 -20.3943615 119.90408516 C-18.27651667 119.87813015 -16.16056744 119.88363064 -14.0426178 119.89598083 C-9.54902555 119.91648871 -5.05605092 119.89718978 -0.5625 119.875 C4.65810041 119.85372171 9.87807271 119.8495932 15.09866142 119.87550163 C17.16162962 119.87880843 19.22332841 119.85784224 21.28614807 119.83509827 C30.75440765 119.86161206 39.0188842 121.23558241 47.3125 126 C52.73190844 132.07630643 55.78927469 138.91613507 55.65234375 147.1015625 C54.77606534 154.08710587 50.70312063 160.79415982 45.375 165.3125 C39.26571364 168.86365762 33.23474414 170.44008021 26.18009949 170.43275452 C25.15511353 170.43412918 24.13012756 170.43550385 23.07408142 170.43692017 C21.96061844 170.43332489 20.84715546 170.42972961 19.69995117 170.42602539 C17.92858292 170.42624443 17.92858292 170.42624443 16.12142944 170.4264679 C12.89247225 170.42589153 9.66355866 170.42088389 6.43461013 170.41389394 C3.05669454 170.40763323 -0.32122196 170.40705445 -3.69914246 170.40586853 C-10.09156627 170.40276322 -16.48397294 170.39456063 -22.87638921 170.38451904 C-30.15568713 170.37333304 -37.43498588 170.36784119 -44.71429026 170.36282361 C-59.68453639 170.35237734 -74.65476648 170.33479341 -89.625 170.3125 C-89.625 169.3225 -89.625 168.3325 -89.625 167.3125 C-90.285 167.3125 -90.945 167.3125 -91.625 167.3125 C-92.89986585 164.64769728 -94.16995466 161.98078284 -95.4375 159.3125 C-95.79392578 158.56871094 -96.15035156 157.82492187 -96.51757812 157.05859375 C-100.11768754 149.46203259 -102.88297843 142.01245873 -104.75 133.8125 C-104.91886719 133.10480469 -105.08773437 132.39710938 -105.26171875 131.66796875 C-111.72448896 103.83225767 -105.80637407 75.84136872 -91.625 51.3125 C-75.91102118 26.65459648 -51.94542958 9.4010061 -23.625 2.3125 C-22.56974121 2.04651001 -22.56974121 2.04651001 -21.49316406 1.77514648 C-14.32504858 0.13894621 -7.3318846 -0.03330415 0 0 Z " fill="#029EE7" transform="translate(257.625,162.6875)"/>
  <path d="M0 0 C1.19095779 -0.00043808 2.38191559 -0.00087616 3.60896301 -0.00132751 C6.85653597 0.0003979 10.10371539 0.01538859 13.35121036 0.03639436 C16.75178726 0.05521525 20.15237282 0.05691584 23.55299377 0.06047058 C29.98437417 0.06977523 36.41560063 0.0943674 42.8469134 0.12451905 C50.17218664 0.15811248 57.49746744 0.17456145 64.82279861 0.18960536 C79.88398585 0.22091853 94.94502925 0.27364802 110.00610352 0.34057617 C111.79422949 3.68522848 113.57102964 7.03577348 115.34594727 10.38745117 C115.84912476 11.32830566 116.35230225 12.26916016 116.87072754 13.23852539 C120.5140297 20.13719247 123.25887136 26.71265979 125.00610352 34.34057617 C125.17835449 34.93435059 125.35060547 35.528125 125.52807617 36.13989258 C127.373065 43.04840513 127.30941709 49.98592262 127.2668457 57.0871582 C127.25615954 59.20447664 127.26677145 61.32094028 127.27954102 63.43823242 C127.31443889 94.39695466 114.03157394 120.2570127 92.44750977 141.90698242 C79.67249344 154.05159156 63.7664195 162.11024178 47.00610352 167.34057617 C45.59651367 167.79110352 45.59651367 167.79110352 44.15844727 168.25073242 C27.41594659 172.71124995 7.61700064 171.98728465 -8.99389648 167.34057617 C-9.8253418 167.1472168 -10.65678711 166.95385742 -11.51342773 166.75463867 C-23.74916396 163.62975745 -42.83684422 156.07615456 -49.99389648 145.34057617 C-48.71984451 145.33693054 -47.44579254 145.33328491 -46.13313293 145.32952881 C-34.08450867 145.29247312 -22.03613749 145.23458517 -9.98770618 145.15667343 C-3.79452824 145.1172844 2.39850934 145.08505382 8.59179688 145.06958008 C14.57664104 145.05435713 20.56109907 145.01981144 26.54577065 144.97226715 C28.82089175 144.95751142 31.096068 144.94953852 33.3712368 144.94869232 C52.05202662 144.93476582 67.32782341 143.40781107 81.75610352 130.27807617 C86.76938684 125.03409308 89.42023072 119.04631411 92.00610352 112.34057617 C92.45985352 111.20620117 92.91360352 110.07182617 93.38110352 108.90307617 C95.94707993 94.27701058 93.17889933 79.59033837 84.63110352 67.37573242 C77.19759319 58.14444378 66.68730993 52.23900719 55.00610352 50.34057617 C50.63695947 50.10934843 46.27666909 50.10267014 41.90315819 50.12731171 C39.69398568 50.13765047 37.48536772 50.1320786 35.27619934 50.12188721 C29.00043764 50.09410866 22.72499451 50.08131878 16.44921875 50.1105957 C12.59465408 50.12744132 8.74108757 50.11483522 4.88662148 50.08414459 C3.43039671 50.0780938 1.9740814 50.08276575 0.5179348 50.09902191 C-8.79583134 50.1986614 -16.44522186 49.30060765 -23.99389648 43.34057617 C-30.63484353 35.45129543 -31.82773062 28.52785405 -30.99389648 18.34057617 C-29.29155398 11.71553625 -24.55631182 7.08359842 -18.99389648 3.34057617 C-12.67840262 -0.0971937 -7.09695991 -0.0686133 0 0 Z " fill="#333333" transform="translate(240.993896484375,210.659423828125)"/>
</svg>
